<svg width="256" height="256" viewBox="0 0 256 256" fill="none" xmlns="http://www.w3.org/2000/svg">
  <path d="M127.911 224.002C153.363 223.995 177.773 213.893 195.786 195.912C213.799 177.931 223.945 153.538 223.996 128.087L224.081 32.0867C224.083 30.5717 223.654 29.0874 222.845 27.8064C222.037 26.5254 220.881 25.5005 219.512 24.8508C218.143 24.2011 216.618 23.9534 215.114 24.1365C213.61 24.3197 212.19 24.926 211.017 25.8851L186.739 45.7137L162.487 25.8422C161.059 24.672 159.27 24.0317 157.423 24.0301C155.577 24.0285 153.787 24.6655 152.357 25.8332L128.069 45.6617L103.817 25.7903C102.389 24.62 100.6 23.9798 98.7534 23.9782C96.9071 23.9765 95.117 24.6136 93.6868 25.7813L69.3993 45.6098L45.1568 25.7384C43.9858 24.7772 42.5658 24.1683 41.0623 23.9825C39.5587 23.7968 38.0333 24.0418 36.6635 24.689C35.2938 25.3363 34.1359 26.3592 33.3247 27.6387C32.5135 28.9182 32.0824 30.4018 32.0814 31.9168L31.9964 127.917C32.003 153.369 42.105 177.779 60.0863 195.792C78.0675 213.805 102.46 223.95 127.911 224.002ZM156.003 120.026C158.377 120.029 160.696 120.734 162.668 122.055C164.641 123.375 166.177 125.251 167.083 127.444C167.99 129.638 168.225 132.051 167.76 134.378C167.295 136.705 166.15 138.843 164.471 140.519C162.791 142.196 160.652 143.337 158.323 143.798C155.995 144.259 153.583 144.019 151.391 143.109C149.199 142.199 147.326 140.659 146.009 138.684C144.692 136.71 143.991 134.389 143.993 132.016C143.996 128.833 145.263 125.782 147.515 123.534C149.767 121.285 152.821 120.024 156.003 120.026ZM100.003 119.977C102.377 119.979 104.696 120.685 106.669 122.005C108.641 123.326 110.177 125.201 111.083 127.395C111.99 129.588 112.225 132.001 111.76 134.328C111.295 136.656 110.15 138.793 108.471 140.47C106.791 142.146 104.652 143.287 102.324 143.748C99.9953 144.209 97.5827 143.97 95.3908 143.059C93.1989 142.149 91.3261 140.609 90.0093 138.635C88.6925 136.66 87.9907 134.34 87.9928 131.966C87.9957 128.784 89.2626 125.733 91.5151 123.484C93.7675 121.236 96.8209 119.974 100.003 119.977Z" fill="#373737"/>
  <circle cx="90.6667" cy="126.955" r="26.6667" fill="white"/>
  <circle cx="160" cy="132.288" r="21.3333" fill="white"/>
  </svg>
